<svg width="32" height="32" viewBox="0 0 32 32" fill="none" xmlns="http://www.w3.org/2000/svg">
  <!-- Background with gradient -->
  <defs>
    <linearGradient id="bgGradient" x1="0%" y1="0%" x2="100%" y2="100%">
      <stop offset="0%" style="stop-color:#bbada0;stop-opacity:1" />
      <stop offset="100%" style="stop-color:#a09086;stop-opacity:1" />
    </linearGradient>
    <filter id="shadow" x="-20%" y="-20%" width="140%" height="140%">
      <feDropShadow dx="1" dy="1" stdDeviation="1" flood-color="#000000" flood-opacity="0.3"/>
    </filter>
  </defs>
  
  <!-- Main background -->
  <rect width="32" height="32" rx="6" fill="url(#bgGradient)"/>
  
  <!-- Grid background -->
  <rect x="3" y="3" width="26" height="26" rx="4" fill="rgba(238,228,218,0.2)"/>
  
  <!-- Grid cells -->
  <rect x="5" y="5" width="4" height="4" rx="1" fill="rgba(238,228,218,0.35)"/>
  <rect x="11" y="5" width="4" height="4" rx="1" fill="rgba(238,228,218,0.35)"/>
  <rect x="17" y="5" width="4" height="4" rx="1" fill="rgba(238,228,218,0.35)"/>
  <rect x="23" y="5" width="4" height="4" rx="1" fill="rgba(238,228,218,0.35)"/>
  
  <rect x="5" y="11" width="4" height="4" rx="1" fill="rgba(238,228,218,0.35)"/>
  <rect x="11" y="11" width="4" height="4" rx="1" fill="rgba(238,228,218,0.35)"/>
  <rect x="17" y="11" width="4" height="4" rx="1" fill="rgba(238,228,218,0.35)"/>
  <rect x="23" y="11" width="4" height="4" rx="1" fill="rgba(238,228,218,0.35)"/>
  
  <rect x="5" y="17" width="4" height="4" rx="1" fill="rgba(238,228,218,0.35)"/>
  <rect x="11" y="17" width="4" height="4" rx="1" fill="rgba(238,228,218,0.35)"/>
  <rect x="17" y="17" width="4" height="4" rx="1" fill="rgba(238,228,218,0.35)"/>
  <rect x="23" y="17" width="4" height="4" rx="1" fill="rgba(238,228,218,0.35)"/>
  
  <rect x="5" y="23" width="4" height="4" rx="1" fill="rgba(238,228,218,0.35)"/>
  <rect x="11" y="23" width="4" height="4" rx="1" fill="rgba(238,228,218,0.35)"/>
  <rect x="17" y="23" width="4" height="4" rx="1" fill="rgba(238,228,218,0.35)"/>
  <rect x="23" y="23" width="4" height="4" rx="1" fill="rgba(238,228,218,0.35)"/>
  
  <!-- Sample tiles with shadows -->
  <rect x="5" y="5" width="4" height="4" rx="1" fill="#eee4da" filter="url(#shadow)"/>
  <rect x="11" y="5" width="4" height="4" rx="1" fill="#ede0c8" filter="url(#shadow)"/>
  <rect x="17" y="11" width="4" height="4" rx="1" fill="#f2b179" filter="url(#shadow)"/>
  <rect x="23" y="17" width="4" height="4" rx="1" fill="#edc22e" filter="url(#shadow)"/>
  
  <!-- Numbers on tiles -->
  <text x="7" y="7.5" font-family="Arial, sans-serif" font-size="2.5" font-weight="bold" fill="#776e65" text-anchor="middle">2</text>
  <text x="13" y="7.5" font-family="Arial, sans-serif" font-size="2.5" font-weight="bold" fill="#776e65" text-anchor="middle">4</text>
  <text x="19" y="13.5" font-family="Arial, sans-serif" font-size="2.5" font-weight="bold" fill="#f9f6f2" text-anchor="middle">8</text>
  <text x="25" y="19.5" font-family="Arial, sans-serif" font-size="2" font-weight="bold" fill="#f9f6f2" text-anchor="middle">2048</text>
  
  <!-- Highlight effect -->
  <rect x="5" y="5" width="4" height="4" rx="1" fill="none" stroke="rgba(255,255,255,0.3)" stroke-width="0.5"/>
  <rect x="11" y="5" width="4" height="4" rx="1" fill="none" stroke="rgba(255,255,255,0.3)" stroke-width="0.5"/>
  <rect x="17" y="11" width="4" height="4" rx="1" fill="none" stroke="rgba(255,255,255,0.3)" stroke-width="0.5"/>
  <rect x="23" y="17" width="4" height="4" rx="1" fill="none" stroke="rgba(255,255,255,0.3)" stroke-width="0.5"/>
</svg>
